#N canvas 74 232 699 340 10;
#X obj 45 62 cnv 4 8 4 empty empty empty 20 12 0 14 -228856 -66577
0;
#X obj 3 62 cnv 4 8 4 empty empty empty 20 12 0 14 -228856 -66577 0
;
#X obj 8 44 tgl 15 0 empty empty play 18 8 0 10 -262144 -1 -1 0 1;
#X obj 94 172 soundfiler;
#X obj 7 14 bng 15 250 50 0 empty load load 18 8 0 10 -262144 -1 -1
;
#X obj 94 111 openpanel;
#X msg 7 207 0 1;
#X obj 7 234 tabplay~ \$0-sample;
#X msg 94 151 read -resize \$1 \$2-sample;
#X obj 94 131 pack s \$0;
#X obj 7 182 sel 0 1;
#X obj 7 135 spigot 1;
#X msg 23 111 0;
#X msg 57 111 1;
#X obj 112 257 value \$0-play;
#N canvas 0 22 450 278 (subpatch) 0;
#X array \$0-sample 186835 float 2;
#X coords 0 1 186835 -1 115 56 1 0 0;
#X restore 58 10 graph;
#X obj 7 260 throw~ right;
#X obj 7 280 throw~ left;
#X floatatom 58 71 15 0 0 0 - - -;
#X floatatom 389 189 5 0 0 0 - - -;
#X obj 262 175 hip~ 5;
#X obj 311 127 line~;
#X obj 311 85 * 441;
#X obj 311 106 pack 0 100;
#X obj 389 167 env~ \$1;
#X floatatom 8 70 5 0 1000 0 - - -;
#X obj 262 208 throw~ right;
#X obj 347 209 throw~ left;
#X obj 262 150 tabread4~ \$0-sample;
#X connect 2 0 11 0;
#X connect 3 0 18 0;
#X connect 4 0 5 0;
#X connect 5 0 9 0;
#X connect 6 0 7 0;
#X connect 7 0 16 0;
#X connect 7 0 17 0;
#X connect 7 1 14 0;
#X connect 8 0 3 0;
#X connect 9 0 8 0;
#X connect 10 0 6 0;
#X connect 10 1 7 0;
#X connect 11 0 10 0;
#X connect 12 0 11 1;
#X connect 13 0 11 1;
#X connect 20 0 26 0;
#X connect 20 0 27 0;
#X connect 21 0 28 0;
#X connect 22 0 23 0;
#X connect 23 0 21 0;
#X connect 24 0 19 0;
#X connect 25 0 22 0;
#X connect 28 0 20 0;
#X connect 28 0 24 0;
#X coords 0 -1 1 1 180 90 2 0 0;
